<svg xmlns="http://www.w3.org/2000/svg" style="display: none;"><symbol id="exit-1" viewBox="0 0 512 512"><title>exit-1</title><polygon style="fill:#E23225;" points="92.182,86.001 10,86.001 10,426 502,426 502,86.001 172.447,86.001 "/><path style="fill:#EFEEEE;" d="M284.957,377h136.53c0-25.687,20.824-46.511,46.511-46.511V181.511 c-25.687,0-46.511-20.824-46.511-46.511H90.513c0,25.687-20.824,46.511-46.511,46.511v148.978c25.687,0,46.511,20.824,46.511,46.511 h121.48H284.957z"/><path d="M132.388,96h-0.153c-5.523,0-10-4.477-10-10s4.477-10,10-10h0.153c5.523,0,10,4.477,10,10S137.911,96,132.388,96z"/><path d="M502,436H10c-5.523,0-10-4.477-10-10V86.001c0-5.523,4.477-10,10-10h82.182c5.523,0,10,4.477,10,10s-4.477,10-10,10H20V416 h472V96.001H172.447c-5.523,0-10-4.477-10-10s4.477-10,10-10H502c5.523,0,10,4.477,10,10V426C512,431.523,507.523,436,502,436z"/><path d="M421.487,387h-136.53c-5.523,0-10-4.477-10-10s4.477-10,10-10h127.416c4.153-23.16,22.466-41.472,45.625-45.625v-130.75 c-23.16-4.153-41.472-22.466-45.625-45.625H99.627c-4.153,23.16-22.466,41.472-45.625,45.625v130.749 c23.16,4.153,41.472,22.466,45.625,45.625h112.365c5.523,0,10,4.477,10,10s-4.477,10-10,10H90.513c-5.523,0-10-4.477-10-10 c0-20.132-16.379-36.511-36.511-36.511c-5.523,0-10-4.477-10-10V181.511c0-5.523,4.477-10,10-10 c20.132,0,36.511-16.379,36.511-36.511c0-5.523,4.477-10,10-10h330.974c5.523,0,10,4.477,10,10 c0,20.132,16.379,36.511,36.511,36.511c5.523,0,10,4.477,10,10v148.978c0,5.523-4.477,10-10,10 c-20.132,0-36.511,16.379-36.511,36.511C431.487,382.523,427.01,387,421.487,387z"/><path d="M249.2,387c-2.63,0-5.21-1.07-7.07-2.93s-2.93-4.44-2.93-7.07s1.07-5.21,2.93-7.07c1.86-1.86,4.44-2.93,7.07-2.93 s5.21,1.07,7.07,2.93s2.93,4.44,2.93,7.07s-1.07,5.21-2.93,7.07C254.41,385.93,251.83,387,249.2,387z"/><path d="M263.701,212.711c-4.348-3.407-10.633-2.644-14.039,1.703l-20.209,25.789l-20.209-25.789 c-3.407-4.347-9.692-5.11-14.039-1.703c-4.347,3.406-5.11,9.692-1.703,14.039l23.247,29.666l-23.247,29.666 c-3.407,4.347-2.644,10.633,1.703,14.039c1.83,1.434,4.003,2.129,6.161,2.129c2.968,0,5.906-1.315,7.878-3.833l20.209-25.789 l20.209,25.789c1.973,2.517,4.91,3.833,7.878,3.833c2.158,0,4.332-0.695,6.161-2.129c4.347-3.406,5.11-9.692,1.703-14.039 l-23.247-29.666l23.247-29.666C268.811,222.403,268.048,216.117,263.701,212.711z"/><path d="M167.792,230.582c5.523,0,10-4.477,10-10s-4.477-10-10-10h-25.556c-5.523,0-10,4.477-10,10v71.667c0,5.523,4.477,10,10,10 h25.556c5.523,0,10-4.477,10-10s-4.477-10-10-10h-15.556v-15.833h15.556c5.523,0,10-4.477,10-10s-4.477-10-10-10h-15.556v-15.833 L167.792,230.582L167.792,230.582z"/><path d="M289.649,209.751c-5.523,0-10,4.477-10,10v71.667c0,5.523,4.477,10,10,10s10-4.477,10-10v-71.667 C299.649,214.228,295.172,209.751,289.649,209.751z"/><path d="M369.764,209.751h-55c-5.523,0-10,4.477-10,10s4.477,10,10,10h16.667v61.667c0,5.523,4.477,10,10,10s10-4.477,10-10v-61.667 h18.333c5.523,0,10-4.477,10-10S375.287,209.751,369.764,209.751z"/></symbol><symbol id="exit" viewBox="0 0 512 512"><title>exit</title><g> <g> <path d="M149.84,154.816H87.914c-9.452,0-17.14,7.689-17.14,17.14v17.693c0,4.58,3.713,8.294,8.294,8.294 c4.58,0,8.294-3.713,8.294-8.294v-17.693c0-0.305,0.248-0.553,0.553-0.553h61.927c4.58,0,8.294-3.713,8.294-8.294 C158.134,158.53,154.421,154.816,149.84,154.816z"/> </g> </g><g> <g> <path d="M149.84,278.67H87.914c-0.305,0-0.553-0.248-0.553-0.553V233.33h27.093c4.58,0,8.294-3.713,8.294-8.294 c0-4.58-3.713-8.294-8.294-8.294H79.067c-4.58,0-8.294,3.713-8.294,8.294v53.08c0,9.452,7.689,17.14,17.14,17.14h61.927 c4.58,0,8.294-3.713,8.294-8.294C158.134,282.383,154.421,278.67,149.84,278.67z"/> </g> </g><g> <g> <path d="M239.652,225.037l40.79-57.106c2.663-3.728,1.799-8.907-1.929-11.569c-3.727-2.662-8.906-1.798-11.569,1.929 l-88.467,123.853c-2.663,3.727-1.799,8.906,1.929,11.569c1.461,1.044,3.145,1.545,4.814,1.545c2.588,0,5.138-1.208,6.755-3.473 l37.484-52.478l37.484,52.478c1.619,2.266,4.168,3.473,6.756,3.473c1.669,0,3.353-0.502,4.814-1.545 c3.728-2.663,4.59-7.843,1.929-11.569L239.652,225.037z"/> </g> </g><g> <g> <path d="M216.51,192.638l-24.535-34.348c-2.663-3.728-7.844-4.591-11.569-1.929c-3.728,2.663-4.59,7.843-1.929,11.569 l24.535,34.348c1.619,2.266,4.168,3.473,6.756,3.473c1.669,0,3.353-0.502,4.814-1.545 C218.309,201.544,219.171,196.365,216.51,192.638z"/> </g> </g><g> <g> <path d="M317.927,199.05c-4.58,0-8.294,3.713-8.294,8.294v79.62c0,4.58,3.713,8.294,8.294,8.294c4.58,0,8.294-3.713,8.294-8.294 v-79.62C326.22,202.763,322.507,199.05,317.927,199.05z"/> </g> </g><g> <g> <path d="M317.927,154.816c-4.58,0-8.294,3.713-8.294,8.294v8.846c0,4.58,3.713,8.294,8.294,8.294c4.58,0,8.294-3.713,8.294-8.294 v-8.846C326.22,158.53,322.507,154.816,317.927,154.816z"/> </g> </g><g> <g> <path d="M441.78,154.816h-88.466c-4.58,0-8.294,3.713-8.294,8.294c0,4.58,3.713,8.294,8.294,8.294h88.466 c4.58,0,8.294-3.713,8.294-8.294C450.073,158.53,446.36,154.816,441.78,154.816z"/> </g> </g><g> <g> <path d="M397.546,190.203c-4.58,0-8.294,3.713-8.294,8.294v88.466c0,4.58,3.713,8.294,8.294,8.294c4.58,0,8.294-3.713,8.294-8.294 v-88.466C405.84,193.916,402.127,190.203,397.546,190.203z"/> </g> </g><g> <g> <path d="M486.013,92.89H25.987C11.658,92.89,0,104.548,0,118.877v194.626c0,4.58,3.713,8.294,8.294,8.294 c4.58,0,8.294-3.713,8.294-8.294V118.877c0-5.183,4.217-9.4,9.4-9.4h460.026c5.183,0,9.4,4.217,9.4,9.4v274.246 c0,5.183-4.217,9.4-9.4,9.4H25.987c-5.183,0-9.4-4.216-9.4-9.4v-35.387c0-0.305,0.248-0.553,0.553-0.553h398.354l-3.963,1.982 c-4.097,2.048-5.758,7.03-3.709,11.127c1.453,2.906,4.381,4.587,7.425,4.586c1.246,0,2.511-0.282,3.702-0.877l35.387-17.693 c2.81-1.404,4.585-4.276,4.585-7.418s-1.775-6.013-4.585-7.418l-35.387-17.693c-4.094-2.048-9.078-0.388-11.127,3.709 c-2.049,4.097-0.388,9.079,3.709,11.127l3.963,1.982H17.14c-9.452,0-17.14,7.689-17.14,17.14v35.387 c0,14.329,11.658,25.987,25.987,25.987h460.026c14.329,0,25.987-11.658,25.987-25.987V118.877 C512,104.548,500.342,92.89,486.013,92.89z"/> </g> </g></symbol><symbol id="chat" viewBox="0 0 511.999 511.999"><title>chat</title><g> <g> <path d="M372.29,50.758H28.831C12.933,50.758,0,63.691,0,79.588v206.056c0,15.897,12.933,28.831,28.831,28.831h22.271v76.71 c0,4.884,2.942,9.289,7.456,11.159c1.494,0.62,3.064,0.92,4.62,0.92c3.144,0,6.232-1.228,8.543-3.538l85.251-85.25h17.104 c6.671,0,12.078-5.407,12.078-12.078c0-6.672-5.409-12.079-12.078-12.079c0,0-22.69,0.016-22.927,0.04 c-2.812,0.191-5.572,1.349-7.722,3.498l-68.169,68.169c0,0-0.021-60.392-0.06-60.705c-0.545-6.166-5.717-11.002-12.024-11.002 H28.831c-2.578,0-4.674-2.097-4.674-4.674V79.588c0-2.578,2.097-4.674,4.674-4.674H372.29c2.578,0,4.674,2.097,4.674,4.674v79.055 c0,6.671,5.409,12.078,12.078,12.078s12.078-5.407,12.078-12.078V79.588C401.12,63.691,388.187,50.758,372.29,50.758z"/> </g> </g><g> <g> <path d="M483.169,198.492H242.754c-15.897,0-28.831,12.933-28.831,28.831v140.57c0,15.897,12.933,28.831,28.831,28.831h150.514 l60.98,60.98c2.311,2.311,5.4,3.538,8.543,3.538c1.556,0,3.126-0.301,4.62-0.92c4.512-1.87,7.456-6.273,7.456-11.159v-52.44h8.301 c15.897,0,28.831-12.933,28.831-28.831V227.322C512,211.425,499.067,198.492,483.169,198.492z M487.844,367.893 c0,2.577-2.097,4.674-4.674,4.674h-20.376c-6.356,0-11.554,4.912-12.031,11.147c-0.031,0.264-0.051,36.29-0.051,36.29 l-43.854-43.855c-0.046-0.046-0.094-0.089-0.14-0.135c-0.172-0.168-0.335-0.314-0.489-0.445c-2.126-1.864-4.903-3.003-7.951-3.003 H242.754c-2.578,0-4.674-2.097-4.674-4.674v-140.57c0-2.578,2.097-4.674,4.674-4.674h240.416c2.577,0,4.674,2.097,4.674,4.674 V367.893z"/> </g> </g><g> <g> <path d="M362.964,285.53c-6.667,0-12.078,5.411-12.078,12.078c0,6.667,5.411,12.078,12.078,12.078 c6.668,0,12.078-5.411,12.078-12.078C375.042,290.941,369.631,285.53,362.964,285.53z"/> </g> </g><g> <g> <path d="M310.472,130.611c0,0-219.822,0-219.822,0c-6.67,0-12.078,5.407-12.078,12.078s5.409,12.078,12.078,12.078h219.822 c6.67,0,12.078-5.407,12.078-12.078S317.142,130.611,310.472,130.611z"/> </g> </g><g> <g> <path d="M174.075,210.465H90.65c-6.67,0-12.078,5.407-12.078,12.078c0,6.671,5.409,12.078,12.078,12.078h83.425 c6.671,0,12.078-5.407,12.078-12.078S180.745,210.465,174.075,210.465z"/> </g> </g><g> <g> <path d="M306.837,285.53c-6.666,0-12.078,5.411-12.078,12.078c0,6.667,5.412,12.078,12.078,12.078 c6.668,0,12.078-5.411,12.078-12.078C318.915,290.941,313.505,285.53,306.837,285.53z"/> </g> </g><g> <g> <path d="M419.079,285.53c-6.667,0-12.078,5.411-12.078,12.078c0,6.667,5.411,12.078,12.078,12.078 c6.668,0,12.078-5.411,12.078-12.078C431.157,290.941,425.746,285.53,419.079,285.53z"/> </g> </g></symbol><symbol id="settings" viewBox="0 0 478.703 478.703"><title>settings</title><path d="M454.2,189.101l-33.6-5.7c-3.5-11.3-8-22.2-13.5-32.6l19.8-27.7c8.4-11.8,7.1-27.9-3.2-38.1l-29.8-29.8 c-5.6-5.6-13-8.7-20.9-8.7c-6.2,0-12.1,1.9-17.1,5.5l-27.8,19.8c-10.8-5.7-22.1-10.4-33.8-13.9l-5.6-33.2 c-2.4-14.3-14.7-24.7-29.2-24.7h-42.1c-14.5,0-26.8,10.4-29.2,24.7l-5.8,34c-11.2,3.5-22.1,8.1-32.5,13.7l-27.5-19.8 c-5-3.6-11-5.5-17.2-5.5c-7.9,0-15.4,3.1-20.9,8.7l-29.9,29.8c-10.2,10.2-11.6,26.3-3.2,38.1l20,28.1 c-5.5,10.5-9.9,21.4-13.3,32.7l-33.2,5.6c-14.3,2.4-24.7,14.7-24.7,29.2v42.1c0,14.5,10.4,26.8,24.7,29.2l34,5.8 c3.5,11.2,8.1,22.1,13.7,32.5l-19.7,27.4c-8.4,11.8-7.1,27.9,3.2,38.1l29.8,29.8c5.6,5.6,13,8.7,20.9,8.7c6.2,0,12.1-1.9,17.1-5.5 l28.1-20c10.1,5.3,20.7,9.6,31.6,13l5.6,33.6c2.4,14.3,14.7,24.7,29.2,24.7h42.2c14.5,0,26.8-10.4,29.2-24.7l5.7-33.6 c11.3-3.5,22.2-8,32.6-13.5l27.7,19.8c5,3.6,11,5.5,17.2,5.5l0,0c7.9,0,15.3-3.1,20.9-8.7l29.8-29.8c10.2-10.2,11.6-26.3,3.2-38.1 l-19.8-27.8c5.5-10.5,10.1-21.4,13.5-32.6l33.6-5.6c14.3-2.4,24.7-14.7,24.7-29.2v-42.1 C478.9,203.801,468.5,191.501,454.2,189.101z M451.9,260.401c0,1.3-0.9,2.4-2.2,2.6l-42,7c-5.3,0.9-9.5,4.8-10.8,9.9 c-3.8,14.7-9.6,28.8-17.4,41.9c-2.7,4.6-2.5,10.3,0.6,14.7l24.7,34.8c0.7,1,0.6,2.5-0.3,3.4l-29.8,29.8c-0.7,0.7-1.4,0.8-1.9,0.8 c-0.6,0-1.1-0.2-1.5-0.5l-34.7-24.7c-4.3-3.1-10.1-3.3-14.7-0.6c-13.1,7.8-27.2,13.6-41.9,17.4c-5.2,1.3-9.1,5.6-9.9,10.8l-7.1,42 c-0.2,1.3-1.3,2.2-2.6,2.2h-42.1c-1.3,0-2.4-0.9-2.6-2.2l-7-42c-0.9-5.3-4.8-9.5-9.9-10.8c-14.3-3.7-28.1-9.4-41-16.8 c-2.1-1.2-4.5-1.8-6.8-1.8c-2.7,0-5.5,0.8-7.8,2.5l-35,24.9c-0.5,0.3-1,0.5-1.5,0.5c-0.4,0-1.2-0.1-1.9-0.8l-29.8-29.8 c-0.9-0.9-1-2.3-0.3-3.4l24.6-34.5c3.1-4.4,3.3-10.2,0.6-14.8c-7.8-13-13.8-27.1-17.6-41.8c-1.4-5.1-5.6-9-10.8-9.9l-42.3-7.2 c-1.3-0.2-2.2-1.3-2.2-2.6v-42.1c0-1.3,0.9-2.4,2.2-2.6l41.7-7c5.3-0.9,9.6-4.8,10.9-10c3.7-14.7,9.4-28.9,17.1-42 c2.7-4.6,2.4-10.3-0.7-14.6l-24.9-35c-0.7-1-0.6-2.5,0.3-3.4l29.8-29.8c0.7-0.7,1.4-0.8,1.9-0.8c0.6,0,1.1,0.2,1.5,0.5l34.5,24.6 c4.4,3.1,10.2,3.3,14.8,0.6c13-7.8,27.1-13.8,41.8-17.6c5.1-1.4,9-5.6,9.9-10.8l7.2-42.3c0.2-1.3,1.3-2.2,2.6-2.2h42.1 c1.3,0,2.4,0.9,2.6,2.2l7,41.7c0.9,5.3,4.8,9.6,10,10.9c15.1,3.8,29.5,9.7,42.9,17.6c4.6,2.7,10.3,2.5,14.7-0.6l34.5-24.8 c0.5-0.3,1-0.5,1.5-0.5c0.4,0,1.2,0.1,1.9,0.8l29.8,29.8c0.9,0.9,1,2.3,0.3,3.4l-24.7,34.7c-3.1,4.3-3.3,10.1-0.6,14.7 c7.8,13.1,13.6,27.2,17.4,41.9c1.3,5.2,5.6,9.1,10.8,9.9l42,7.1c1.3,0.2,2.2,1.3,2.2,2.6v42.1H451.9z"/><path d="M239.4,136.001c-57,0-103.3,46.3-103.3,103.3s46.3,103.3,103.3,103.3s103.3-46.3,103.3-103.3S296.4,136.001,239.4,136.001 z M239.4,315.601c-42.1,0-76.3-34.2-76.3-76.3s34.2-76.3,76.3-76.3s76.3,34.2,76.3,76.3S281.5,315.601,239.4,315.601z"/></symbol><symbol id="plus" viewBox="0 0 286.054 286.054"><title>plus</title><path style="fill:#3DB39E;" d="M143.027,0C64.031,0,0,64.04,0,143.027c0,78.996,64.031,143.027,143.027,143.027 c78.987,0,143.027-64.031,143.027-143.027C286.045,64.04,222.014,0,143.027,0z M143.027,259.236 c-64.183,0-116.209-52.026-116.209-116.209s52.026-116.2,116.209-116.2c64.174,0,116.209,52.017,116.209,116.2 S207.201,259.236,143.027,259.236z M196.832,125.149h-35.936V89.392c0-4.934-4.005-8.939-8.939-8.939h-17.878 c-4.943,0-8.939,4.005-8.939,8.939v35.757H89.401c-4.952,0-8.957,4.005-8.957,8.939v17.878c0,4.943,4.005,8.939,8.957,8.939h35.748 v35.676c0,4.934,3.996,8.93,8.939,8.93h17.878c4.934,0,8.939-3.996,8.939-8.93v-35.676h35.936c4.952,0,8.957-3.996,8.957-8.939 v-17.878C205.789,129.162,201.775,125.149,196.832,125.149z"/></symbol></svg>